<svg width="300" height="300" viewBox="0 0 300 300" fill="none" xmlns="http://www.w3.org/2000/svg">
  <g id="hibiscus" transform="translate(150,150)">
    <!-- 6 round petals -->
    <path d="M0,-110 
             C40,-105 70,-75 65,-40 
             C60,-5 30,20 0,20 
             C-30,20 -60,-5 -65,-40 
             C-70,-75 -40,-105 0,-110 Z"
      stroke="#F29B9B"
      stroke-width="8"
      fill="none"
      transform="rotate(0)"
    />

    <path d="M0,-110 
             C40,-105 70,-75 65,-40 
             C60,-5 30,20 0,20 
             C-30,20 -60,-5 -65,-40 
             C-70,-75 -40,-105 0,-110 Z"
      stroke="#F29B9B"
      stroke-width="8"
      fill="none"
      transform="rotate(60)"
    />

    <path d="M0,-110 
             C40,-105 70,-75 65,-40 
             C60,-5 30,20 0,20 
             C-30,20 -60,-5 -65,-40 
             C-70,-75 -40,-105 0,-110 Z"
      stroke="#F29B9B"
      stroke-width="8"
      fill="none"
      transform="rotate(120)"
    />

    <path d="M0,-110 
             C40,-105 70,-75 65,-40 
             C60,-5 30,20 0,20 
             C-30,20 -60,-5 -65,-40 
             C-70,-75 -40,-105 0,-110 Z"
      stroke="#F29B9B"
      stroke-width="8"
      fill="none"
      transform="rotate(180)"
    />

    <path d="M0,-110 
             C40,-105 70,-75 65,-40 
             C60,-5 30,20 0,20 
             C-30,20 -60,-5 -65,-40 
             C-70,-75 -40,-105 0,-110 Z"
      stroke="#F29B9B"
      stroke-width="8"
      fill="none"
      transform="rotate(240)"
    />

    <path d="M0,-110 
             C40,-105 70,-75 65,-40 
             C60,-5 30,20 0,20 
             C-30,20 -60,-5 -65,-40 
             C-70,-75 -40,-105 0,-110 Z"
      stroke="#F29B9B"
      stroke-width="8"
      fill="none"
      transform="rotate(300)"
    />
  </g>
</svg>
